<svg width="191" height="30" viewBox="0 0 191 30" fill="none" xmlns="http://www.w3.org/2000/svg">
<path d="M3.33917 13.7397L13.9664 7.38149C14.2293 7.22152 14.5303 7.13509 14.8381 7.13123C15.1458 7.12737 15.4489 7.20622 15.7157 7.35955C16.0053 7.52815 16.245 7.77036 16.4107 8.0616C16.5763 8.35284 16.6619 8.68272 16.6588 9.01775V13.4657L26.8274 7.3798C27.0903 7.21983 27.3914 7.13341 27.6991 7.12955C28.0068 7.12568 28.3099 7.20454 28.5768 7.35786C28.8663 7.52646 29.1061 7.76867 29.2717 8.05991C29.4373 8.35115 29.5229 8.68103 29.5198 9.01606V21.4512C29.5231 21.7863 29.4376 22.1163 29.2719 22.4077C29.1063 22.699 28.8664 22.9413 28.5768 23.1099C28.3099 23.2632 28.0068 23.3421 27.6991 23.3382C27.3914 23.3344 27.0903 23.2479 26.8274 23.088L16.6588 16.9993V21.4489C16.6625 21.7844 16.5771 22.1149 16.4114 22.4067C16.2458 22.6985 16.0057 22.9411 15.7157 23.1099C15.4489 23.2632 15.1458 23.3421 14.8381 23.3382C14.5303 23.3344 14.2293 23.2479 13.9664 23.088L3.33917 16.7298C3.08653 16.5715 2.87825 16.3516 2.73386 16.0908C2.58948 15.83 2.51373 15.5368 2.51373 15.2387C2.51373 14.9406 2.58948 14.6473 2.73386 14.3865C2.87825 14.1257 3.08653 13.9058 3.33917 13.7476V13.7397Z" fill="#E1E1E6"/>
<path d="M88.3214 25.586C87.9759 25.5853 87.6365 25.4948 87.3367 25.3232C86.6615 24.9406 86.2417 24.1978 86.2417 23.3915V7.07398C86.2417 6.26542 86.6615 5.52494 87.3367 5.14232C87.6437 4.96589 87.9924 4.87516 88.3465 4.87961C88.7006 4.88407 89.0469 4.98354 89.3494 5.16764L103.295 13.5155C103.586 13.6977 103.825 13.9508 103.992 14.251C104.158 14.5511 104.245 14.8886 104.245 15.2316C104.245 15.5747 104.158 15.9121 103.992 16.2123C103.825 16.5125 103.586 16.7655 103.295 16.9478L89.3471 25.2979C89.0376 25.485 88.6831 25.5846 88.3214 25.586Z" fill="#E1E1E6"/>
<g clip-path="url(#clip0_1_71)">
<path d="M187.143 13.7397L176.515 7.38149C176.252 7.22152 175.951 7.13509 175.644 7.13123C175.336 7.12737 175.033 7.20622 174.766 7.35955C174.477 7.52815 174.237 7.77036 174.071 8.0616C173.905 8.35284 173.82 8.68272 173.823 9.01775V13.4657L163.654 7.3798C163.391 7.21983 163.09 7.13341 162.783 7.12955C162.475 7.12568 162.172 7.20454 161.905 7.35786C161.615 7.52646 161.376 7.76867 161.21 8.05991C161.044 8.35115 160.959 8.68103 160.962 9.01606V21.4512C160.959 21.7863 161.044 22.1163 161.21 22.4076C161.376 22.699 161.615 22.9413 161.905 23.1099C162.172 23.2632 162.475 23.3421 162.783 23.3382C163.09 23.3344 163.391 23.2479 163.654 23.088L173.823 16.9993V21.4489C173.819 21.7844 173.905 22.1149 174.07 22.4066C174.236 22.6984 174.476 22.9411 174.766 23.1099C175.033 23.2632 175.336 23.3421 175.644 23.3382C175.951 23.3344 176.252 23.2479 176.515 23.088L187.143 16.7298C187.395 16.5715 187.604 16.3516 187.748 16.0908C187.892 15.83 187.968 15.5368 187.968 15.2387C187.968 14.9406 187.892 14.6473 187.748 14.3865C187.604 14.1257 187.395 13.9058 187.143 13.7476V13.7397Z" fill="#E1E1E6"/>
</g>
<defs>
<clipPath id="clip0_1_71">
<rect width="28.8089" height="28.8089" fill="white" transform="translate(160.061 0.828369)"/>
</clipPath>
</defs>
</svg>
